<svg id="Capa_1" enable-background="new 0 0 512 512" height="512" viewBox="0 0 512 512" width="512" xmlns="http://www.w3.org/2000/svg"><g><g><g><circle cx="215.993" cy="433.393" fill="#eaa895" r="24.233"/><circle cx="408.421" cy="433.393" fill="#eaa895" r="24.233"/><path d="m490.238 83.281h-374.228c-7.208 0-13.4 4.304-16.179 10.477l53.919 202.504h295.571c9.928 0 18.408-7.164 20.066-16.953l20.85-160.527c9.803 0 17.75-7.948 17.75-17.75s-7.946-17.751-17.749-17.751z" fill="#e9c278"/><path d="m461.57 381.394h-300.455c-8.521 0-15.948-5.803-18.007-14.072l-2.796-67.084-63.933-210.811h-53.809c-10.25 0-18.557-8.309-18.557-18.558s8.308-18.557 18.557-18.557h68.311c8.521 0 15.948 5.803 18.007 14.072l69.501 233.162.165 44.732h283.016c10.249 0 18.558 8.309 18.558 18.558s-8.308 18.558-18.558 18.558z" fill="#f9fbfc"/><circle cx="306.544" cy="131.039" fill="#eaa895" r="99.351"/></g><g fill="#f9fbfc"><path d="m475.029 137.298c-1.693 0-3.066 1.372-3.066 3.065s1.373 3.065 3.066 3.065 3.065-1.372 3.065-3.065c.001-1.693-1.372-3.065-3.065-3.065z"/><path d="m475.029 157.06c-1.693 0-3.066 1.372-3.066 3.066 0 1.693 1.373 3.065 3.066 3.065s3.065-1.372 3.065-3.065c.001-1.693-1.372-3.066-3.065-3.066z"/><path d="m475.029 176.824c-1.693 0-3.066 1.372-3.066 3.065 0 1.694 1.373 3.066 3.066 3.066s3.065-1.372 3.065-3.066c.001-1.693-1.372-3.065-3.065-3.065z"/><path d="m475.029 196.587c-1.693 0-3.066 1.372-3.066 3.065 0 1.694 1.373 3.066 3.066 3.066s3.065-1.372 3.065-3.066c.001-1.692-1.372-3.065-3.065-3.065z"/><path d="m465.52 127.043c-1.693 0-3.066 1.372-3.066 3.066 0 1.693 1.373 3.065 3.066 3.065s3.066-1.372 3.066-3.065c-.001-1.693-1.373-3.066-3.066-3.066z"/><path d="m455.266 137.298c-1.693 0-3.066 1.372-3.066 3.065s1.372 3.065 3.066 3.065c1.693 0 3.065-1.372 3.065-3.065.001-1.693-1.372-3.065-3.065-3.065z"/><path d="m465.52 152.938c1.693 0 3.066-1.372 3.066-3.066 0-1.693-1.373-3.065-3.066-3.065s-3.066 1.372-3.066 3.065c0 1.694 1.373 3.066 3.066 3.066z"/><path d="m455.266 157.06c-1.693 0-3.066 1.372-3.066 3.066 0 1.693 1.372 3.065 3.066 3.065 1.693 0 3.065-1.372 3.065-3.065.001-1.693-1.372-3.066-3.065-3.066z"/><path d="m465.52 172.702c1.693 0 3.066-1.372 3.066-3.066 0-1.693-1.373-3.065-3.066-3.065s-3.066 1.372-3.066 3.065 1.373 3.066 3.066 3.066z"/><path d="m455.266 176.824c-1.693 0-3.066 1.372-3.066 3.065 0 1.694 1.372 3.066 3.066 3.066 1.693 0 3.065-1.372 3.065-3.066.001-1.693-1.372-3.065-3.065-3.065z"/><path d="m465.52 192.465c1.693 0 3.066-1.373 3.066-3.066s-1.373-3.065-3.066-3.065-3.066 1.373-3.066 3.065c0 1.693 1.373 3.066 3.066 3.066z"/><path d="m455.266 196.587c-1.693 0-3.066 1.372-3.066 3.065 0 1.694 1.372 3.066 3.066 3.066 1.693 0 3.065-1.372 3.065-3.066.001-1.692-1.372-3.065-3.065-3.065z"/><path d="m465.52 212.227c1.693 0 3.066-1.372 3.066-3.065s-1.373-3.065-3.066-3.065-3.066 1.372-3.066 3.065 1.373 3.065 3.066 3.065z"/><path d="m455.266 216.351c-1.693 0-3.066 1.372-3.066 3.065s1.372 3.066 3.066 3.066c1.693 0 3.065-1.373 3.065-3.066.001-1.693-1.372-3.065-3.065-3.065z"/><path d="m465.52 231.991c1.693 0 3.066-1.372 3.066-3.065 0-1.694-1.373-3.066-3.066-3.066s-3.066 1.372-3.066 3.066c0 1.692 1.373 3.065 3.066 3.065z"/><path d="m455.266 236.114c-1.693 0-3.066 1.372-3.066 3.065s1.372 3.065 3.066 3.065c1.693 0 3.065-1.372 3.065-3.065.001-1.693-1.372-3.065-3.065-3.065z"/><path d="m465.52 251.754c1.693 0 3.066-1.372 3.066-3.066 0-1.693-1.373-3.065-3.066-3.065s-3.066 1.372-3.066 3.065c0 1.694 1.373 3.066 3.066 3.066z"/><path d="m455.266 255.877c-1.693 0-3.066 1.372-3.066 3.066 0 1.693 1.372 3.065 3.066 3.065 1.693 0 3.065-1.372 3.065-3.065.001-1.694-1.372-3.066-3.065-3.066z"/><path d="m465.52 271.518c1.693 0 3.066-1.373 3.066-3.066s-1.373-3.065-3.066-3.065-3.066 1.372-3.066 3.065 1.373 3.066 3.066 3.066z"/><path d="m455.266 281.771c1.693 0 3.065-1.372 3.065-3.066 0-1.693-1.372-3.065-3.065-3.065s-3.066 1.372-3.066 3.065c.001 1.694 1.373 3.066 3.066 3.066z"/><path d="m445.757 206.097c-1.693 0-3.066 1.372-3.066 3.065s1.373 3.065 3.066 3.065 3.066-1.372 3.066-3.065c-.001-1.692-1.374-3.065-3.066-3.065z"/><path d="m445.757 225.86c-1.693 0-3.066 1.372-3.066 3.066 0 1.693 1.373 3.065 3.066 3.065s3.066-1.372 3.066-3.065c-.001-1.694-1.374-3.066-3.066-3.066z"/><path d="m445.757 245.623c-1.693 0-3.066 1.372-3.066 3.065 0 1.694 1.373 3.066 3.066 3.066s3.066-1.372 3.066-3.066c-.001-1.693-1.374-3.065-3.066-3.065z"/><path d="m432.437 258.943c0 1.693 1.373 3.065 3.065 3.065 1.693 0 3.066-1.372 3.066-3.065 0-1.694-1.373-3.066-3.066-3.066-1.692 0-3.065 1.372-3.065 3.066z"/><path d="m445.757 265.387c-1.693 0-3.066 1.372-3.066 3.065 0 1.694 1.373 3.066 3.066 3.066s3.066-1.373 3.066-3.066c-.001-1.693-1.374-3.065-3.066-3.065z"/><path d="m435.503 281.771c1.693 0 3.066-1.372 3.066-3.066 0-1.693-1.373-3.065-3.066-3.065s-3.065 1.372-3.065 3.065c-.001 1.694 1.372 3.066 3.065 3.066z"/><path d="m445.757 285.15c-1.693 0-3.066 1.372-3.066 3.065s1.373 3.066 3.066 3.066 3.066-1.373 3.066-3.066c-.001-1.693-1.374-3.065-3.066-3.065z"/><path d="m425.993 265.387c-1.693 0-3.066 1.372-3.066 3.065 0 1.694 1.373 3.066 3.066 3.066s3.066-1.373 3.066-3.066-1.373-3.065-3.066-3.065z"/><path d="m412.674 278.705c0 1.694 1.373 3.066 3.065 3.066 1.693 0 3.066-1.372 3.066-3.066 0-1.693-1.373-3.065-3.066-3.065-1.692 0-3.065 1.372-3.065 3.065z"/><path d="m425.993 285.15c-1.693 0-3.066 1.372-3.066 3.065s1.373 3.066 3.066 3.066 3.066-1.373 3.066-3.066-1.373-3.065-3.066-3.065z"/><path d="m406.23 265.387c-1.693 0-3.066 1.372-3.066 3.065 0 1.694 1.373 3.066 3.066 3.066s3.065-1.373 3.065-3.066c.001-1.693-1.372-3.065-3.065-3.065z"/><path d="m392.911 278.705c0 1.694 1.372 3.066 3.066 3.066 1.693 0 3.065-1.372 3.065-3.066 0-1.693-1.372-3.065-3.065-3.065-1.694 0-3.066 1.372-3.066 3.065z"/><path d="m406.23 285.15c-1.693 0-3.066 1.372-3.066 3.065s1.373 3.066 3.066 3.066 3.065-1.373 3.065-3.066c.001-1.693-1.372-3.065-3.065-3.065z"/><path d="m386.467 265.387c-1.693 0-3.066 1.372-3.066 3.065 0 1.694 1.372 3.066 3.066 3.066 1.693 0 3.066-1.373 3.066-3.066-.001-1.693-1.373-3.065-3.066-3.065z"/><path d="m373.147 278.705c0 1.694 1.372 3.066 3.066 3.066 1.693 0 3.066-1.372 3.066-3.066 0-1.693-1.372-3.065-3.066-3.065-1.693 0-3.066 1.372-3.066 3.065z"/><path d="m386.467 285.15c-1.693 0-3.066 1.372-3.066 3.065s1.372 3.066 3.066 3.066c1.693 0 3.066-1.373 3.066-3.066-.001-1.693-1.373-3.065-3.066-3.065z"/><path d="m366.703 265.387c-1.693 0-3.065 1.372-3.065 3.065 0 1.694 1.372 3.066 3.065 3.066s3.066-1.373 3.066-3.066-1.373-3.065-3.066-3.065z"/><path d="m353.384 278.705c0 1.694 1.372 3.066 3.065 3.066s3.066-1.372 3.066-3.066c0-1.693-1.373-3.065-3.066-3.065-1.692 0-3.065 1.372-3.065 3.065z"/><path d="m366.703 285.15c-1.693 0-3.065 1.372-3.065 3.065s1.372 3.066 3.065 3.066 3.066-1.373 3.066-3.066-1.373-3.065-3.066-3.065z"/><path d="m346.94 265.387c-1.693 0-3.066 1.372-3.066 3.065 0 1.694 1.373 3.066 3.066 3.066s3.066-1.373 3.066-3.066-1.373-3.065-3.066-3.065z"/><path d="m333.621 278.705c0 1.694 1.372 3.066 3.065 3.066s3.066-1.372 3.066-3.066c0-1.693-1.373-3.065-3.066-3.065s-3.065 1.372-3.065 3.065z"/><path d="m346.94 285.15c-1.693 0-3.066 1.372-3.066 3.065s1.373 3.066 3.066 3.066 3.066-1.373 3.066-3.066-1.373-3.065-3.066-3.065z"/><path d="m327.177 265.387c-1.693 0-3.066 1.372-3.066 3.065 0 1.694 1.372 3.066 3.066 3.066 1.693 0 3.066-1.373 3.066-3.066-.001-1.693-1.373-3.065-3.066-3.065z"/><path d="m313.858 278.705c0 1.694 1.372 3.066 3.066 3.066 1.693 0 3.065-1.372 3.065-3.066 0-1.693-1.372-3.065-3.065-3.065-1.694 0-3.066 1.372-3.066 3.065z"/><path d="m327.177 285.15c-1.693 0-3.066 1.372-3.066 3.065s1.372 3.066 3.066 3.066c1.693 0 3.066-1.373 3.066-3.066-.001-1.693-1.373-3.065-3.066-3.065z"/><path d="m307.414 265.387c-1.693 0-3.065 1.372-3.065 3.065 0 1.694 1.372 3.066 3.065 3.066s3.066-1.373 3.066-3.066c-.001-1.693-1.373-3.065-3.066-3.065z"/><path d="m294.095 278.705c0 1.694 1.372 3.066 3.065 3.066s3.065-1.372 3.065-3.066c0-1.693-1.372-3.065-3.065-3.065s-3.065 1.372-3.065 3.065z"/><path d="m307.414 285.15c-1.693 0-3.065 1.372-3.065 3.065s1.372 3.066 3.065 3.066 3.066-1.373 3.066-3.066c-.001-1.693-1.373-3.065-3.066-3.065z"/><path d="m287.65 265.387c-1.693 0-3.065 1.372-3.065 3.065 0 1.694 1.372 3.066 3.065 3.066s3.066-1.373 3.066-3.066-1.373-3.065-3.066-3.065z"/><path d="m274.331 278.705c0 1.694 1.372 3.066 3.065 3.066s3.066-1.372 3.066-3.066c0-1.693-1.372-3.065-3.066-3.065-1.692 0-3.065 1.372-3.065 3.065z"/><path d="m287.65 285.15c-1.693 0-3.065 1.372-3.065 3.065s1.372 3.066 3.065 3.066 3.066-1.373 3.066-3.066-1.373-3.065-3.066-3.065z"/><path d="m267.887 265.387c-1.693 0-3.066 1.372-3.066 3.065 0 1.694 1.373 3.066 3.066 3.066s3.065-1.373 3.065-3.066c.001-1.693-1.372-3.065-3.065-3.065z"/><path d="m254.568 278.705c0 1.694 1.372 3.066 3.065 3.066s3.065-1.372 3.065-3.066c0-1.693-1.372-3.065-3.065-3.065-1.692 0-3.065 1.372-3.065 3.065z"/><path d="m267.887 285.15c-1.693 0-3.066 1.372-3.066 3.065s1.373 3.066 3.066 3.066 3.065-1.373 3.065-3.066c.001-1.693-1.372-3.065-3.065-3.065z"/><path d="m248.124 265.387c-1.693 0-3.066 1.372-3.066 3.065 0 1.694 1.372 3.066 3.066 3.066 1.693 0 3.065-1.373 3.065-3.066s-1.372-3.065-3.065-3.065z"/><path d="m234.805 278.705c0 1.694 1.373 3.066 3.066 3.066s3.065-1.372 3.065-3.066c0-1.693-1.372-3.065-3.065-3.065s-3.066 1.372-3.066 3.065z"/><path d="m248.124 285.15c-1.693 0-3.066 1.372-3.066 3.065s1.372 3.066 3.066 3.066c1.693 0 3.065-1.373 3.065-3.066s-1.372-3.065-3.065-3.065z"/><path d="m228.361 265.387c-1.693 0-3.066 1.372-3.066 3.065 0 1.694 1.372 3.066 3.066 3.066 1.693 0 3.065-1.373 3.065-3.066s-1.372-3.065-3.065-3.065z"/><path d="m215.041 278.705c0 1.694 1.373 3.066 3.066 3.066s3.065-1.372 3.065-3.066c0-1.693-1.372-3.065-3.065-3.065s-3.066 1.372-3.066 3.065z"/><path d="m228.361 285.15c-1.693 0-3.066 1.372-3.066 3.065s1.372 3.066 3.066 3.066c1.693 0 3.065-1.373 3.065-3.066s-1.372-3.065-3.065-3.065z"/><path d="m208.597 265.387c-1.693 0-3.066 1.372-3.066 3.065 0 1.694 1.373 3.066 3.066 3.066s3.066-1.373 3.066-3.066-1.373-3.065-3.066-3.065z"/><path d="m195.278 278.705c0 1.694 1.372 3.066 3.066 3.066s3.066-1.372 3.066-3.066c0-1.693-1.372-3.065-3.066-3.065s-3.066 1.372-3.066 3.065z"/><path d="m208.597 285.15c-1.693 0-3.066 1.372-3.066 3.065s1.373 3.066 3.066 3.066 3.066-1.373 3.066-3.066-1.373-3.065-3.066-3.065z"/><path d="m188.834 265.387c-1.693 0-3.066 1.372-3.066 3.065 0 1.694 1.373 3.066 3.066 3.066s3.066-1.373 3.066-3.066-1.373-3.065-3.066-3.065z"/><path d="m175.515 278.705c0 1.694 1.372 3.066 3.066 3.066 1.693 0 3.066-1.372 3.066-3.066 0-1.693-1.372-3.065-3.066-3.065s-3.066 1.372-3.066 3.065z"/><path d="m188.834 285.15c-1.693 0-3.066 1.372-3.066 3.065s1.373 3.066 3.066 3.066 3.066-1.373 3.066-3.066-1.373-3.065-3.066-3.065z"/><path d="m445.744 186.32c-1.693 0-3.065 1.372-3.065 3.065 0 1.694 1.372 3.066 3.065 3.066s3.066-1.372 3.066-3.066c0-1.693-1.373-3.065-3.066-3.065z"/><path d="m445.757 146.814c-1.693 0-3.066 1.372-3.066 3.065s1.373 3.065 3.066 3.065 3.066-1.372 3.066-3.065c-.001-1.692-1.374-3.065-3.066-3.065z"/><path d="m445.757 166.577c-1.693 0-3.066 1.372-3.066 3.066 0 1.693 1.373 3.065 3.066 3.065s3.066-1.373 3.066-3.065c-.001-1.694-1.374-3.066-3.066-3.066z"/><path d="m445.744 127.037c-1.693 0-3.065 1.372-3.065 3.065 0 1.694 1.372 3.066 3.065 3.066s3.066-1.372 3.066-3.066c0-1.693-1.373-3.065-3.066-3.065z"/></g><g><path d="m490.238 79.268h-94.258c-17.911-30.823-51.292-51.594-89.436-51.594s-71.525 20.771-89.436 51.594h-100.193l-4.157-13.946c-2.541-10.028-11.523-17.022-21.877-17.022h-68.311c-12.445 0-22.57 10.125-22.57 22.57s10.125 22.57 22.57 22.57h50.832l62.921 207.475 2.776 66.575c.011.27.05.539.116.802 2.509 10.076 11.514 17.115 21.9 17.115h37.826c-19.722 7.03-33.88 25.882-33.88 47.987 0 28.084 22.848 50.932 50.932 50.932s50.932-22.848 50.932-50.932c0-22.105-14.159-40.957-33.88-47.987h158.324c-19.722 7.03-33.881 25.882-33.881 47.987 0 28.084 22.848 50.932 50.933 50.932 28.084 0 50.932-22.848 50.932-50.932 0-22.105-14.159-40.957-33.88-47.987h36.096c12.445 0 22.57-10.125 22.57-22.57s-10.125-22.57-22.57-22.57h-279.018l-.147-39.992h266.917c11.929 0 22.031-8.535 24.022-20.295.012-.065.021-.13.028-.195l18.72-157.074c11.135-.946 19.909-10.305 19.909-21.68 0-12-9.763-21.763-21.762-21.763zm-183.694-43.568c52.57 0 95.339 42.769 95.339 95.34s-42.768 95.339-95.339 95.339c-52.57 0-95.339-42.768-95.339-95.339s42.769-95.34 95.339-95.34zm-93.635 51.593c-4.027 8.585-6.908 17.808-8.444 27.476h-76.968l-8.19-27.476zm3.084 366.32c-11.15 0-20.22-9.071-20.22-20.22 0-11.15 9.071-20.221 20.22-20.221s20.221 9.071 20.221 20.221c0 11.149-9.071 20.22-20.221 20.22zm212.649-20.22c0 11.149-9.071 20.22-20.22 20.22-11.15 0-20.221-9.071-20.221-20.22 0-11.15 9.071-20.221 20.221-20.221 11.149 0 20.22 9.071 20.22 20.221zm32.928-85.102c8.02 0 14.545 6.525 14.545 14.545s-6.525 14.545-14.545 14.545h-300.455c-6.565 0-12.274-4.363-14.016-10.658l-2.779-66.653c-.014-.338-.071-.673-.169-.997l-63.933-210.81c-.513-1.691-2.072-2.848-3.84-2.848h-53.808c-8.02 0-14.545-6.525-14.545-14.545s6.525-14.545 14.545-14.545h68.311c6.693 0 12.497 4.535 14.114 11.029.015.059.031.118.048.176l69.336 232.608.163 44.155c.008 2.21 1.802 3.998 4.012 3.998zm3.845-69.56c-1.371 7.839-8.125 13.518-16.094 13.518h-268.921l-50.511-169.455h73.621c-.216 2.72-.329 5.47-.329 8.245 0 56.995 46.369 103.363 103.364 103.363s103.363-46.368 103.363-103.363c0-2.775-.113-5.525-.329-8.245h74.421zm24.823-163.962h-81.615c-1.535-9.668-4.417-18.891-8.444-27.476h90.058c7.574 0 13.737 6.163 13.737 13.738.001 7.575-6.162 13.738-13.736 13.738z" fill="#31373d"/></g></g><g><path d="m258.752 146.823c-4.359 0-7.892-3.534-7.892-7.892v-15.785c0-4.359 3.533-7.892 7.892-7.892h95.584c4.359 0 7.892 3.533 7.892 7.892v15.785c0 4.359-3.534 7.892-7.892 7.892z" fill="#fff"/><path d="m354.337 150.823h-95.584c-6.558 0-11.893-5.335-11.893-11.893v-15.784c0-6.558 5.335-11.893 11.893-11.893h95.584c6.557 0 11.892 5.335 11.892 11.893v15.784c-.001 6.558-5.336 11.893-11.892 11.893zm-95.584-31.569c-2.146 0-3.893 1.746-3.893 3.893v15.784c0 2.146 1.746 3.893 3.893 3.893h95.584c2.145 0 3.892-1.746 3.892-3.893v-15.784c0-2.146-1.746-3.893-3.892-3.893z" fill="#31373d"/></g></g></svg>